HIERARCHY
ROOT Pelvis
{
	OFFSET 0.000000 0.000000 0.000000
	CHANNELS 6 Xposition Yposition Zposition Zrotation Yrotation Xrotation 
	JOINT Left_hip
	{
		OFFSET 0.069463 -0.088608 -0.009542
		CHANNELS 3 Zrotation Yrotation Xrotation
		JOINT Left_knee
		{
			OFFSET 0.030639 -0.359740 -0.005288
			CHANNELS 3 Zrotation Yrotation Xrotation
			JOINT Left_ankle
			{
				OFFSET -0.011068 -0.376034 -0.042462
				CHANNELS 3 Zrotation Yrotation Xrotation
				JOINT Left_foot
				{
					OFFSET 0.023192 -0.053321 0.111332
					CHANNELS 3 Zrotation Yrotation Xrotation
					End Site
					{
						OFFSET 0.000000 0.000000 0.000000
					}
				}
			}
		}
	}
	JOINT Right_hip
	{
		OFFSET -0.067438 -0.088025 -0.006263
		CHANNELS 3 Zrotation Yrotation Xrotation
		JOINT Right_knee
		{
			OFFSET -0.035962 -0.366229 -0.008063
			CHANNELS 3 Zrotation Yrotation Xrotation
			JOINT Right_ankle
			{
				OFFSET 0.013608 -0.375719 -0.040481
				CHANNELS 3 Zrotation Yrotation Xrotation
				JOINT Right_foot
				{
					OFFSET -0.021034 -0.045527 0.114617
					CHANNELS 3 Zrotation Yrotation Xrotation
					End Site
					{
						OFFSET 0.000000 0.000000 0.000000
					}
				}
			}
		}
	}
	JOINT Spine1
	{
		OFFSET -0.002610 0.101823 -0.019986
		CHANNELS 3 Zrotation Yrotation Xrotation
		JOINT Spine2
		{
			OFFSET 0.004114 0.128714 -0.000938
			CHANNELS 3 Zrotation Yrotation Xrotation
			JOINT Spine3
			{
				OFFSET 0.002191 0.048470 0.027684
				CHANNELS 3 Zrotation Yrotation Xrotation
				JOINT Neck
				{
					OFFSET -0.002856 0.198873 -0.044022
					CHANNELS 3 Zrotation Yrotation Xrotation
					JOINT Head
					{
						OFFSET 0.002981 0.062960 0.049860
						CHANNELS 3 Zrotation Yrotation Xrotation
						End Site
						{
							OFFSET 0.000000 0.000000 0.000000
						}
					}
				}
				JOINT Left_collar
				{
					OFFSET 0.073708 0.112550 -0.033440
					CHANNELS 3 Zrotation Yrotation Xrotation
					JOINT Left_shoulder
					{
						OFFSET 0.083291 0.030786 -0.008013
						CHANNELS 3 Zrotation Yrotation Xrotation
						JOINT Left_elbow
						{
							OFFSET 0.245601 -0.011792 -0.027873
							CHANNELS 3 Zrotation Yrotation Xrotation
							JOINT Left_wrist
							{
								OFFSET 0.232258 0.008622 -0.000487
								CHANNELS 3 Zrotation Yrotation Xrotation
								JOINT Left_palm
								{
									OFFSET 0.077300 -0.009457 -0.012851
									CHANNELS 3 Zrotation Yrotation Xrotation
									End Site
									{
										OFFSET 0.000000 0.000000 0.000000
									}
								}
							}
						}
					}
				}
				JOINT Right_collar
				{
					OFFSET -0.075339 0.110574 -0.037874
					CHANNELS 3 Zrotation Yrotation Xrotation
					JOINT Right_shoulder
					{
						OFFSET -0.086522 0.031207 -0.009986
						CHANNELS 3 Zrotation Yrotation Xrotation
						JOINT Right_elbow
						{
							OFFSET -0.237313 -0.011478 -0.019859
							CHANNELS 3 Zrotation Yrotation Xrotation
							JOINT Right_wrist
							{
								OFFSET -0.237599 0.007976 -0.003742
								CHANNELS 3 Zrotation Yrotation Xrotation
								JOINT Right_palm
								{
									OFFSET -0.076920 -0.006943 -0.009920
									CHANNELS 3 Zrotation Yrotation Xrotation
									End Site
									{
										OFFSET 0.000000 0.000000 0.000000
									}
								}
							}
						}
					}
				}
			}
		}
	}
}
MOTION
Frames: 8
Frame Time: 0.100000
-1.076232 -0.406240 1.938241 176.463569 21.420754 -29.966918 5.090537 8.680877 20.863232 2.817054 -8.468950 1.299411 -7.413813 2.688392 -7.038633 2.445522 13.507660 -2.033727 1.259909 -1.953516 23.099861 -4.029941 -1.079016 -2.942983 -4.580084 11.404848 -4.870431 24.699509 -27.333928 -1.742943 1.322299 -0.845362 21.322630 0.287525 -5.625140 9.665461 2.460581 -2.525374 -6.175843 -4.511730 -22.482426 11.345410 0.958216 -19.894773 -7.079496 -24.202333 -3.235311 6.545779 -60.781049 -5.250902 12.077646 133.063945 -67.746027 -97.207600 -2.646272 -8.035104 -6.007996 -5.852884 4.047373 -6.947335 13.400974 15.461685 -4.832370 61.913092 18.743205 20.926797 -164.246903 40.615015 -136.200060 -2.812801 6.605755 -33.546916 6.404554 6.027467 3.533383 
-1.079218 -0.405922 1.936143 176.400598 21.215122 -30.322555 4.980327 8.606960 21.260384 2.843503 -8.201039 1.285429 -7.375108 2.684615 -7.269656 2.601562 13.449530 -1.755447 1.216005 -1.734703 23.129796 -4.085863 -1.337609 -2.405498 -4.946409 11.876372 -5.156373 25.471780 -27.907146 -1.918194 1.251363 -0.719923 21.151619 0.307372 -5.469524 9.842827 2.395381 -2.291781 -6.365037 -4.134735 -22.478240 11.798718 0.580099 -20.141227 -5.998132 -23.885678 -3.717153 6.694086 -61.358456 -5.379594 12.576062 134.762402 -67.382382 -98.492794 -3.898860 -8.909289 -6.578021 -5.231028 4.575617 -6.380695 12.891177 16.617925 -5.138906 62.915389 20.862638 21.900021 -165.294957 40.200002 -136.258811 -0.910412 7.757161 -33.207890 5.095365 5.673138 4.364191 
-1.083948 -0.403745 1.931111 176.408872 22.553517 -30.505664 4.100773 8.076030 21.256312 2.750020 -9.521463 1.093834 -7.064759 2.681018 -7.164370 2.640764 13.599456 -2.249722 0.762618 -1.206809 21.065092 -4.318697 -1.824408 2.223824 -5.645573 10.666682 -7.062600 25.388103 -27.691603 -2.165737 1.236674 -1.017924 21.182619 0.270397 -5.222304 9.674660 2.186938 -2.369039 -6.278054 -4.073268 -22.187472 11.773457 0.140540 -20.217455 -5.597633 -23.708644 -4.009907 6.840709 -61.392423 -5.671654 13.119917 135.791861 -67.471319 -99.400014 -4.478600 -8.976447 -7.035668 -4.522297 5.046864 -5.926314 12.779371 16.800086 -5.094405 63.285897 20.516566 22.325160 -165.463469 40.574546 -136.216961 0.098005 8.183030 -32.966612 3.761829 5.326388 4.907394 
-1.084430 -0.397736 1.924393 176.036717 27.463227 -31.334368 3.265621 7.196472 21.360947 2.205122 -12.954433 0.670687 -6.883023 1.836999 -6.566255 2.551924 13.515841 -3.082043 -0.340704 -0.266358 15.448543 -4.569923 -3.583165 15.408407 -6.610666 8.863864 -9.780250 25.909708 -27.287192 -3.359955 0.536376 -1.789182 22.033192 0.445023 -4.896228 9.037762 1.879955 -2.767064 -6.140204 -3.811452 -21.480460 11.670940 -0.697896 -20.829368 -4.577259 -22.965314 -4.477093 7.108345 -60.877413 -6.310336 13.897535 136.952329 -67.540095 -101.064635 -5.335675 -9.431884 -9.131816 -3.036331 5.992185 -5.245176 12.574906 16.800795 -5.280118 63.964204 19.813604 23.023449 -165.226136 40.408283 -136.172522 1.460749 8.987862 -34.417922 1.329715 4.638846 6.284511 
-1.077122 -0.394283 1.921892 174.167005 35.411066 -32.275288 3.381971 5.829335 19.790404 1.538847 -17.943763 0.533883 -6.363345 0.175926 -4.971683 1.155226 12.547981 -4.525499 -2.519740 2.153700 8.375137 -2.856237 2.898562 29.762275 -3.511846 15.101327 -8.048095 25.452465 -26.983213 -6.419601 0.235155 -2.489221 21.746075 1.026281 -4.511718 8.798091 1.544018 -2.668482 -6.349387 -3.781965 -17.584449 11.343679 -1.298249 -18.163119 -4.507254 -22.762051 -4.956848 6.528568 -60.333618 -6.207974 15.086961 137.461418 -68.178989 -102.491929 -3.982060 -9.407467 -9.205638 -5.771019 5.413770 -6.137929 13.590270 15.720786 -4.111029 62.966109 18.089189 22.223326 -163.914552 41.604983 -135.250676 1.351247 8.655059 -32.726788 3.628793 5.064694 4.599110 
-1.060308 -0.398518 1.938858 169.201523 48.197023 -34.742815 2.857000 1.543388 15.526268 1.269239 -24.113473 2.330269 -6.343776 -1.696791 -3.977131 -0.187160 11.922353 -5.755479 -1.352061 7.137883 10.300975 -0.609058 17.102744 28.535282 0.553367 21.023035 -7.743319 21.745325 -25.088154 -7.369584 -0.393468 -2.032889 18.008230 2.385234 -5.408098 9.996071 1.801489 -2.846834 -5.716395 -3.378307 -7.499746 11.709894 -3.282735 -9.855993 -4.800914 -23.469829 -4.069279 5.426561 -59.672485 -6.910550 16.975954 140.482739 -68.854842 -106.513797 -1.654479 -9.379222 -9.496429 -8.714253 3.793292 -5.730730 16.643788 10.691148 -2.402808 58.901374 13.255707 21.143459 -161.390997 45.145933 -134.152639 -0.271571 7.227145 -31.754082 8.257004 5.850456 1.725143 
-1.035467 -0.395062 1.954747 160.845418 64.428466 -40.847632 -0.843741 -4.578230 6.610431 -1.212734 -29.695575 11.548717 -3.978972 -5.099967 -4.479113 -3.081176 13.182304 -7.291594 -0.882861 3.813350 18.779875 -3.332733 13.698693 17.205903 -3.226744 14.266491 -13.048155 20.505781 -23.843726 -3.759929 -0.321787 0.958959 17.231176 1.543491 -6.258998 8.279996 1.507306 -2.637775 -4.425238 -4.975885 -0.619003 13.456548 -5.536753 -2.952138 -3.466330 -23.401847 -4.338761 4.995771 -57.168364 -9.255966 17.048575 143.911062 -69.395683 -108.763310 0.039019 -9.153786 -9.368955 -8.152280 3.750532 -3.199312 17.468204 7.866612 -1.629115 59.110698 7.567510 21.031210 -159.983564 47.790887 -132.120541 -0.926950 6.230862 -30.763322 8.089998 6.194050 2.739760 
-0.991286 -0.391535 1.962884 134.163048 77.774579 -66.926315 -3.061057 -6.992273 1.944074 -1.922336 -32.599953 12.406044 -5.255436 -10.616323 -0.649846 -5.877166 14.706903 -8.669733 -1.294219 -2.577726 24.043354 -4.784500 4.572243 8.555102 -5.720074 9.704458 -13.818238 22.492953 -23.108142 -1.935456 2.839412 3.890737 21.459823 -0.229059 -4.298735 8.572838 1.502422 -0.427387 -4.596087 -6.734759 4.858459 15.305709 -7.520474 3.539904 -3.756599 -24.816879 -5.856055 3.281773 -57.024681 -10.185922 16.308384 143.575845 -69.442823 -106.141424 0.002529 -8.797365 -5.903719 -7.305098 2.855392 -2.586856 17.187139 9.642247 0.445082 56.405937 6.443706 17.705559 -157.795405 47.582940 -129.579066 -2.753873 5.636801 -27.294171 8.623071 6.864196 3.608559 
